PathFileType	4	(X/Y/Z)	../Python\walking\Walking16\task.trc
DataRate	CameraRate	NumFrames	NumMarkers	Units	OrigDataRate	OrigDataStartFrame	OrigNumFrames
200.000000	200.000000	7	30	mm	200.000000	15	452
Frame#	Time	C7			RBAK			CLAV			STRN			RASI			LASI			PE01			RTH1			RTH2			RTH3			RD5M			RTOE			LTH2			LTH3			LTB2			LTB3			LHEE			LTOE			LD5M			LTB1			RTB2			RHEE			RTB3			RTB1			LTH1			LPSI			PE03			PE02			RPSI			T10			
		X1	Y1	Z1	X2	Y2	Z2	X3	Y3	Z3	X4	Y4	Z4	X5	Y5	Z5	X6	Y6	Z6	X7	Y7	Z7	X8	Y8	Z8	X9	Y9	Z9	X10	Y10	Z10	X11	Y11	Z11	X12	Y12	Z12	X13	Y13	Z13	X14	Y14	Z14	X15	Y15	Z15	X16	Y16	Z16	X17	Y17	Z17	X18	Y18	Z18	X19	Y19	Z19	X20	Y20	Z20	X21	Y21	Z21	X22	Y22	Z22	X23	Y23	Z23	X24	Y24	Z24	X25	Y25	Z25	X26	Y26	Z26	X27	Y27	Z27	X28	Y28	Z28	X29	Y29	Z29	X30	Y30	Z30	

16	0.215	-1224.434936523438	1317.361450195313	158.9061126708985	-1285.513061523438	1211.47412109375	251.2428131103517	-1105.080688476563	1216.926879882813	164.0295104980469	-1046.6103515625	1033.368041992188	165.2269897460938	-1079.721801757813	844.9696655273442	278.7177734375001	-1076.204467773438	830.3632812500005	51.38174819946292	-1272.855712890625	915.7643432617192	179.2002563476563	-1041.10595703125	569.057556152344	316.3992309570314	-992.4369506835942	509.1178283691409	295.8537597656251	-990.942993164063	570.3169555664065	305.3615112304689	-830.953002929688	15.50883483886719	268.8808593750001	-797.3779296875005	34.86933898925783	217.0776367187501	-1255.24853515625	536.7591552734377	33.83237457275392	-1176.424682617188	549.071228027344	28.11848068237306	-1447.42822265625	253.0994415283204	56.89196777343753	-1397.69970703125	253.0190429687501	56.62445068359378	-1573.085937500001	122.0662918090821	116.9411544799805	-1419.530883789063	23.66459846496583	115.6294326782227	-1463.2138671875	16.63325500488282	69.82318115234378	-1397.451904296875	314.2293090820314	44.54349517822267	-956.3405761718755	249.8992309570314	287.5262145996095	-981.1976928710942	24.58874511718751	206.3499450683595	-921.473510742188	219.2671508789064	269.1870422363282	-922.3607788085942	297.6662902832032	276.3273315429689	-1213.890991210938	582.0874023437502	19.74407958984376	-1278.65576171875	880.2517089843755	136.8453063964844	-1290.731689453125	855.1752929687505	155.7983856201172	-1288.901733398438	856.9716186523442	206.3847045898439	-1277.659790039063	878.5422363281255	223.6165313720704	-1259.574462890625	1017.026489257813	158.7839050292969	
17	0.22	-1217.19091796875	1318.037231445313	159.4606323242188	-1277.816162109375	1212.07275390625	252.0365600585939	-1097.744750976563	1217.782958984375	164.2262573242188	-1039.042236328125	1034.265014648438	165.3719482421876	-1072.278198242188	846.0747070312505	279.4319152832032	-1068.614868164063	830.5028686523442	52.30475234985354	-1265.58837890625	916.7141723632817	179.0289154052735	-1034.036499023438	570.108337402344	317.2832031250001	-985.3881225585942	510.2034301757815	296.5941467285157	-983.9060668945317	571.3377685546877	306.0337219238282	-830.5026855468755	14.73934555053712	269.3970642089845	-796.4556274414067	33.48611068725587	217.1643371582032	-1245.784545898438	536.0825805664065	34.20629119873048	-1166.983276367188	548.9834594726565	28.26005935668947	-1439.97412109375	255.8507232666017	57.31117248535159	-1390.261352539063	254.7956848144532	56.5169486999512	-1567.027832031251	128.1495819091797	117.8313827514649	-1419.433715820313	23.71265411376954	115.6845932006837	-1462.386962890625	18.28314208984376	70.26703643798831	-1389.026489257813	316.1265869140626	44.79907226562501	-952.5321655273442	250.0653533935548	288.001434326172	-980.8262329101567	25.11201095581056	206.5022735595704	-918.240600585938	218.9707489013673	269.2860107421876	-918.0247192382817	297.364471435547	276.4972534179689	-1204.74462890625	581.677673339844	20.16809272766114	-1271.016479492188	880.920532226563	136.8609924316407	-1283.089111328125	855.855590820313	155.9454345703126	-1281.408813476563	857.9808959960942	206.5201416015626	-1270.1318359375	879.8054809570317	223.9017333984376	-1252.004272460938	1017.715515136719	159.1462554931641	
18	0.225	-1209.943969726563	1318.794799804688	160.0085601806641	-1270.089233398438	1212.7705078125	252.8553924560548	-1090.413696289063	1218.718139648438	164.3916015625001	-1031.495361328125	1035.229370117188	165.4861602783204	-1064.871215820313	847.227416992188	280.1533813476564	-1061.07373046875	830.7339477539067	53.24256134033206	-1258.355224609375	917.7319335937505	178.8787994384766	-1027.30029296875	571.0544433593752	318.134735107422	-978.6950073242192	511.1378173828127	297.3275756835939	-977.1867065429692	572.2104492187502	306.739715576172	-830.121459960938	14.21166896820069	269.8601684570314	-795.648315429688	32.38557052612306	217.2413330078126	-1235.996826171875	535.335144042969	34.52767181396486	-1157.231811523438	548.9239501953127	28.35053062438966	-1431.990966796875	258.5667114257814	57.73142242431643	-1382.32373046875	256.5516357421876	56.39493942260745	-1560.358032226563	134.343246459961	118.7997512817383	-1419.09912109375	23.89298057556153	115.7330322265626	-1461.139282226563	20.25451278686524	70.6951599121094	-1380.098999023438	317.9739685058595	45.03220748901369	-949.035034179688	250.1758728027345	288.4554748535157	-980.506225585938	25.54297637939455	206.615692138672	-915.2622070312505	218.656951904297	269.4173278808595	-913.972778320313	297.0351562500001	276.7119750976564	-1195.365112304688	581.2517089843752	20.56154251098634	-1263.416381835938	881.6633911132817	136.8968658447266	-1275.48583984375	856.6144409179692	156.0988311767579	-1273.95947265625	859.0560913085942	206.6617279052736	-1262.636352539063	881.1449584960942	224.2080230712892	-1244.453979492188	1018.4912109375	159.5433959960938	
19	0.23	-1202.696044921875	1319.630004882813	160.5484008789063	-1262.335205078125	1213.564208984375	253.6977844238282	-1083.090454101563	1219.726440429688	164.5242462158204	-1023.974914550782	1036.254638671875	165.5675201416016	-1057.504272460938	848.4189453125005	280.8782653808595	-1053.591064453125	831.0544433593755	54.18718719482425	-1251.159301757813	918.8126831054692	178.7559509277344	-1020.910400390625	571.8889160156252	318.9460449218751	-972.3984375000005	511.894714355469	298.0522766113282	-970.7970581054692	572.9133911132815	307.4715576171876	-829.8073120117192	13.88476657867432	270.2569580078126	-794.9521484375005	31.5342197418213	217.2999725341798	-1225.901489257813	534.5169677734377	34.78707885742189	-1147.183959960938	548.8892211914065	28.40174865722658	-1423.46875	261.2236938476564	58.14395904541018	-1373.876708984375	258.272674560547	56.26607513427737	-1553.080932617188	140.5995025634766	119.8306274414063	-1418.419189453125	24.24129295349123	115.7541122436524	-1459.388305664063	22.55552101135255	71.09231567382815	-1370.661010742188	319.7487792968751	45.23637771606447	-945.851196289063	250.2302856445314	288.8827514648439	-980.2387695312505	25.88414573669435	206.6914672851564	-912.536743164063	218.3237152099611	269.5833435058595	-910.2074584960942	296.6765441894532	276.9720458984376	-1185.76513671875	580.8106079101565	20.92078590393067	-1255.86279296875	882.4769897460942	136.9584045410157	-1267.92919921875	857.4490356445317	156.2631378173829	-1266.558349609375	860.192260742188	206.8141632080079	-1255.178833007813	882.553344726563	224.5373840332032	-1236.927856445313	1019.349487304688	159.9766235351563	
20	0.235	-1195.449096679688	1320.538452148438	161.0787811279297	-1254.557373046875	1214.44970703125	254.5620880126954	-1075.777709960938	1220.802124023438	164.6231842041016	-1016.485168457032	1037.33447265625	165.6140899658204	-1050.1806640625	849.6406250000005	281.6028442382814	-1046.176025390625	831.461547851563	55.13051605224612	-1244.003173828125	919.9518432617192	178.6659240722657	-1014.875244140625	572.6098632812502	319.7108459472657	-966.5314331054692	512.4580688476565	298.7679443359376	-964.7462768554692	573.4329223632815	308.2229309082032	-829.5566406250005	13.71717739105225	270.5809326171876	-794.362182617188	30.89645576477052	217.3348541259767	-1215.520141601563	533.6333618164065	34.97813796997072	-1136.860473632813	548.8776855468752	28.42724609375001	-1414.404296875	263.8015136718751	58.5403861999512	-1364.916137695313	259.9471740722657	56.13912582397464	-1545.210327148438	146.8668518066407	120.9081497192383	-1417.2705078125	24.79252815246583	115.7235565185547	-1457.050659179688	25.1848602294922	71.44274902343753	-1360.710327148438	321.4319763183595	45.40596389770509	-942.9728393554692	250.232147216797	289.2810363769532	-980.0231323242192	26.14209747314455	206.7328033447267	-910.0576782226567	217.9718170166017	269.7845153808595	-906.725219726563	296.289520263672	277.2751464843751	-1175.9609375	580.3581542968752	21.24301528930665	-1248.362548828125	883.3579711914067	137.0506744384766	-1260.426025390625	858.3565063476567	156.4427032470704	-1259.209594726563	861.3844604492192	206.9819641113282	-1247.763793945313	884.023559570313	224.8915252685548	-1229.43017578125	1020.285949707032	160.4469299316407	
21	0.24	-1188.205322265625	1321.515869140625	161.5982818603516	-1246.759033203125	1215.422973632813	255.4464874267579	-1068.478271484375	1221.938842773438	164.6875762939454	-1009.030639648438	1038.462280273438	165.624252319336	-1042.903076171875	850.8837280273442	282.3233642578126	-1038.8369140625	831.9520874023442	56.06444168090823	-1236.889526367188	921.1447753906255	178.6137847900391	-1009.197570800782	573.2203369140627	320.4246215820314	-961.1159667968755	512.8231201171877	299.4748535156251	-959.0388183593755	573.7646484375002	308.9890136718751	-829.3646850585942	13.66921138763428	270.831756591797	-793.8721313476567	30.4364528656006	217.3435974121095	-1204.879760742188	532.6948852539065	35.09825134277345	-1126.289672851563	548.890319824219	28.44026947021486	-1404.802001953125	266.2848205566407	58.91317367553714	-1355.443481445313	261.5668029785157	56.02342224121097	-1536.768554687501	153.0909729003907	122.0172805786133	-1415.518310546875	25.5781764984131	115.6150207519532	-1454.044311523438	28.13117790222169	71.73100280761722	-1350.25146484375	323.0096435546876	45.53660583496095	-940.3832397460942	250.1880035400392	289.6506347656251	-979.8569946289067	26.32625579833986	206.7443237304689	-907.8132934570317	217.6040954589845	270.0193481445314	-903.5170898437505	295.8771057128907	277.6166076660157	-1165.97265625	579.9016113281252	21.52627754211426	-1240.921875	884.3030395507817	137.1782379150391	-1252.982666015625	859.333862304688	156.6415557861329	-1251.9169921875	862.6281127929692	207.1693115234376	-1240.395874023438	885.5485229492192	225.2719573974611	-1221.964965820313	1021.296142578125	160.9549255371094	
22	0.245	-1180.966430664063	1322.557495117188	162.1055908203126	-1238.943603515625	1216.4794921875	256.3489990234376	-1061.194702148438	1223.130737304688	164.7168426513672	-1001.615234375	1039.6318359375	165.5966033935547	-1035.673583984375	852.1400756835942	283.0362243652345	-1031.580932617188	832.5225219726567	56.98102188110354	-1229.820556640625	922.3871459960942	178.6040191650391	-1003.873291015625	573.727478027344	321.0848083496095	-956.1591796875005	512.9964599609377	300.1729736328126	-953.6735229492192	573.913269042969	309.7657470703126	-829.2253417968755	13.70474529266358	271.0137329101564	-793.4744262695317	30.11970710754396	217.3266143798829	-1194.011474609375	531.7176513671877	35.14903259277345	-1115.506225585938	548.9316406250002	28.45171546936037	-1394.673217773438	268.6640930175782	59.25611877441409	-1345.466430664063	263.1271362304689	55.92823410034183	-1527.784545898438	159.2159423828126	123.1446533203126	-1413.02197265625	26.62330818176271	115.4023056030274	-1450.291015625	31.37294006347658	71.94276428222659	-1339.295776367188	324.4743652343751	45.62550354003908	-938.058959960938	250.1063995361329	289.9934082031251	-979.7362670898442	26.44776344299318	206.7315673828126	-905.7877807617192	217.2248382568361	270.2847900390626	-900.5691528320317	295.4439086914064	277.9900207519532	-1155.823364257813	579.4509277343752	21.76945114135743	-1233.546264648438	885.3088378906255	137.3451385498047	-1245.604370117188	860.3779296875005	156.8634185791016	-1244.683227539063	863.918579101563	207.3800659179689	-1233.078491210938	887.121215820313	225.6798553466798	-1214.535888671875	1022.375244140625	161.5008697509766	
